# xmcd
#
# Track frame offsets: 
#        150
#        23127
#        38238
#        53357
#        68397
#        89231
#        109960
#        129600
#        148283
#        180611
#        205075
#        220291
#
# Disc length: 3176 seconds
#
# Revision: 2
# Processed by: cddbd v1.5.2PL0 Copyright (c) Steve Scherf et al.
# Submitted via: ExactAudioCopyFreeDBPlugin 1.0
#
DISCID=b00c660c
DTITLE=Tim Maia - Racional vol. 1 Remixado
DYEAR=2006
DGENRE=Soul
TTITLE0=Rational Culture (Bruno E Remix)
TTITLE1=Rational Culture (Parteum Remix)
TTITLE2=Bom Senso (Silvera Remix)
TTITLE3=Imunização Racional (Que Beleza) (Instituto Remix)
TTITLE4=You Don't Know What I Know (JMB Remix)
TTITLE5=Leia o Livro Universo em Desencanto (Rappin' Hood Remix)
TTITLE6=Universo em Desencanto (Zegon Remix)
TTITLE7=Bom Senso (Bossacucanova Remix)
TTITLE8=Imunização Racional (Que Beleza) (Madzoo's Rebirth Remix)
TTITLE9=Rational Culture (Grand Daddy and Jam)
TTITLE10=Bom Senso (Max de Castro Remix)
TTITLE11=You Don't Know What I Know (DJ Mau Mau's Art and Soul Remix)
EXTD=SIMPLESMENTE FANTASTICO
EXTT0=
EXTT1=
EXTT2=
EXTT3=
EXTT4=
EXTT5=
EXTT6=
EXTT7=
EXTT8=
EXTT9=
EXTT10=
EXTT11=
PLAYORDER=
